<svg id="レイヤー_1" data-name="レイヤー 1" xmlns="http://www.w3.org/2000/svg" viewBox="0 0 380.82 648.02"><defs><style>.cls-1{fill:#ca9e67;}.cls-2{fill:#00a554;}.cls-3{fill:#93c460;}.cls-4{fill:#f1b425;}.cls-5{fill:#fcea10;}.cls-6{fill:#e94976;}.cls-7{fill:#f29abd;}.cls-8{fill:#2da7d5;}.cls-9{fill:#a3d9ea;}</style></defs><path class="cls-1" d="M185.71,190.42V643.68c0,2.4,3.37,4.34,7.52,4.34s7.53-1.94,7.53-4.34V190.42Z"/><polygon class="cls-2" points="285.62 240.78 190.41 190.42 240.77 95.21 335.99 145.57 285.62 240.78 285.62 240.78"/><polygon class="cls-3" points="380.82 291.17 335.99 145.57 190.41 190.42 285.62 240.78 380.82 291.17 380.82 291.17"/><polygon class="cls-4" points="140.04 285.62 190.41 190.42 285.62 240.78 235.25 336 140.04 285.62 140.04 285.62"/><polygon class="cls-5" points="89.67 380.83 235.25 336 190.41 190.42 140.04 285.62 89.67 380.83 89.67 380.83"/><polygon class="cls-6" points="95.2 140.05 190.41 190.42 140.04 285.62 44.83 235.26 95.2 140.05 95.2 140.05"/><polygon class="cls-7" points="0 89.67 44.83 235.26 190.41 190.42 95.2 140.05 0 89.67 0 89.67"/><polygon class="cls-8" points="240.77 95.21 190.41 190.42 95.2 140.05 145.58 44.85 240.77 95.21 240.77 95.21"/><polygon class="cls-9" points="291.16 0 145.58 44.85 190.41 190.42 240.77 95.21 291.16 0 291.16 0"/></svg>